<svg xmlns:dc="http://purl.org/dc/elements/1.1/" xmlns:cc="http://creativecommons.org/ns#" xmlns:rdf="http://www.w3.org/1999/02/22-rdf-syntax-ns#" xmlns:svg="http://www.w3.org/2000/svg" xmlns="http://www.w3.org/2000/svg" xmlns:sodipodi="http://sodipodi.sourceforge.net/DTD/sodipodi-0.dtd" xmlns:inkscape="http://www.inkscape.org/namespaces/inkscape" width="37" height="37" viewBox="0 0 80 80" version="1.1" id="svg2" inkscape:version="0.48.2 r9819" sodipodi:docname="explorer.svg">
  <metadata id="metadata10">
    <rdf:RDF>
      <cc:Work rdf:about="">
        <dc:format>image/svg+xml</dc:format>
        <dc:type rdf:resource="http://purl.org/dc/dcmitype/StillImage"/>
        <dc:title/>
      </cc:Work>
    </rdf:RDF>
  </metadata>
  <defs id="defs8"/>
  <sodipodi:namedview pagecolor="#ffffff" bordercolor="#666666" borderopacity="1" objecttolerance="10" gridtolerance="10" guidetolerance="10" inkscape:pageopacity="0" inkscape:pageshadow="2" inkscape:window-width="1366" inkscape:window-height="706" id="namedview6" showgrid="false" inkscape:zoom="1.3463542" inkscape:cx="67.089403" inkscape:cy="47.001095" inkscape:window-x="-8" inkscape:window-y="-8" inkscape:window-maximized="1" inkscape:current-layer="svg2" inkscape:snap-grids="false">
    <inkscape:grid type="xygrid" id="grid5799"/>
  </sodipodi:namedview>
  <path style="fill:#000000;fill-opacity:1;stroke:none" d="m 32.889554,0.70391366 c -1.608049,-0.0012 -2.253538,1.54858504 -2.253538,1.54858504 l 1.525472,-0.0809 c 0,0 0.413097,-0.578967 0.716509,-0.554717 0.249914,0.01998 0.557757,0.375043 0.64717,0.392925 0.08941,0.01789 1.80283,0.115566 1.80283,0.115566 0,0 -0.812996,-1.42024104 -2.438443,-1.42146204 z m -0.02311,1.15566004 c -0.340572,0.10393 -0.343373,0.354721 -0.577831,0.462264 l -0.843632,0.10401 c 0,0 -2.146552,1.038404 -2.946933,2.634905 -0.484535,0.966491 -0.744763,2.641543 -0.866746,4.067925 -0.121982,1.4263823 -0.115566,2.6002363 -0.115566,2.6002363 1.379421,0.086 2.949608,0.148024 4.749764,0.138679 2.626055,-0.01363 5.027779,-0.279328 7.072642,-0.624056 0,0 -1.9e-5,-0.01136 0,-0.01156 0.0033,-0.03376 0.294087,-3.0059973 -0.878302,-5.5702833 -1.168494,-2.555766 -3.813679,-3.339859 -3.813679,-3.339859 0.185346,0.01759 -1.153002,-0.104118 -1.282783,-0.104009 -0.08664,-0.01427 -0.1057,-0.23082 -0.496934,-0.358255 z m 2.554009,0.381368 c 0.904372,0.410945 2.50765,1.362899 3.374528,3.258962 1.165183,2.548524 0.952784,5.3594433 0.924529,5.6742933 2.314755,-0.40973 4.124087,-0.906039 5.154245,-1.2250003 -0.856858,-3.97674 -3.30012,-7.436021 -9.453302,-7.708255 z m -4.657311,0.150236 c -6.721112,0.474822 -8.879762,4.325411 -9.22217,8.6327833 0.449536,0.09293 2.419041,0.464218 5.604953,0.68184 -2.04e-4,-0.03446 -0.0061,-1.177425 0.115566,-2.6002363 0.123521,-1.444363 0.365117,-3.148418 0.901415,-4.218161 0.600211,-1.197226 1.841686,-2.056445 2.600236,-2.496226 z m 14.168393,7.7775953 c -1.994466,0.619744 -6.821013,1.899609 -12.666038,1.929952 -6.223161,0.03231 -10.045438,-0.698396 -10.747641,-0.843632 -0.04695,0.731026 -0.04131,1.47894 0,2.218868 0,0 5.794223,1.318131 11.348585,0.832076 5.554362,-0.486055 12.342453,-2.172642 12.342453,-2.172642 -0.05703,-0.661617 -0.147853,-1.316576 -0.277359,-1.964622 z m 0.427594,2.31132 c 0,0 -7.686607,2.012904 -11.625943,2.253538 -4.115258,0.25138 -6.987583,0.302323 -12.342453,-0.855189 -1.880766,2.053356 -3.510891,3.473676 -6.333019,5.03868 -0.234293,0.129926 0.07653,0.587878 0.288915,0.751179 0.600006,0.461341 3.061933,0.692393 6.15967,0.739622 0.0051,0.143393 0.0014,0.283529 0.01156,0.427595 0.481142,6.82514 6.407171,11.968406 13.232312,11.487264 6.82514,-0.481142 11.968406,-6.407171 11.487264,-13.232311 -0.02958,-0.419588 -0.09147,-0.830549 -0.161792,-1.236557 0.01864,-0.0043 0.03914,-0.0073 0.05778,-0.01156 0.128826,-0.200675 0.266525,-0.413426 0.381368,-0.670282 0.181152,-0.405166 0.438017,-1.385344 0.64717,-2.241982 0.115951,-0.474908 0.139405,-0.590985 0.208019,-0.889858 -0.257094,-0.198256 -0.545406,-0.411543 -0.774293,-0.589387 -0.04536,0.208454 -0.129275,0.604717 -0.300472,1.305896 -0.210592,0.862537 -0.467598,1.83215 -0.681839,2.311321 -0.169467,0.37903 -0.363853,0.692414 -0.543161,0.947641 l -0.531603,0.09245 c 0.198243,-0.246407 0.501692,-0.658174 0.739622,-1.19033 0.181153,-0.405165 0.449574,-1.385343 0.658727,-2.241981 0.192447,-0.788216 0.312185,-1.372819 0.335141,-1.479245 -0.365804,-0.285715 -0.912972,-0.71651 -0.912972,-0.71651 z m 2.334434,1.814387 c -0.06543,0.285741 -0.07853,0.339718 -0.173349,0.728066 -0.210592,0.862537 -0.467598,1.809037 -0.681839,2.288208 -0.0668,0.149395 -0.134521,0.294356 -0.208019,0.427594 1.490569,-0.362644 2.635787,-0.741591 3.201179,-1.109434 0.177088,-0.115204 0.344534,-0.477154 0.173349,-0.600943 -0.791395,-0.572286 -1.572,-1.16611 -2.311321,-1.733491 z m 6.922406,3.120283 c -0.335763,0 -0.626505,0.202323 -0.739622,0.496934 l -3.224293,0 c -0.518321,0 -0.95005,0.381838 -1.028538,0.878302 l 0,0.05778 0,4.853774 c 0,0.01622 -0.0094,0.0306 -0.01156,0.04623 l 0,0.06934 c 0,0.573871 0.466223,1.040094 1.040094,1.040094 l 0.912972,0 c 0.06436,-0.210474 0.131279,-0.447656 0.173349,-0.6125 0.04774,-0.187046 0.0995,-0.375218 0.127122,-0.566274 0.01647,-0.113902 0.01663,-0.231684 0.02311,-0.346698 l -0.161793,-0.02311 c -0.0038,2.15e-4 -0.0077,2.15e-4 -0.01156,0 -0.0081,-0.0029 -0.01593,-0.0068 -0.02311,-0.01156 -0.0042,-0.0036 -0.008,-0.0074 -0.01156,-0.01156 -0.0042,-0.0036 -0.008,-0.0074 -0.01156,-0.01156 -0.0042,-0.0036 -0.008,-0.0074 -0.01156,-0.01156 -0.0048,-0.0072 -0.0087,-0.01497 -0.01156,-0.02311 -0.0059,-0.01075 -0.0098,-0.02255 -0.01156,-0.03467 -2.15e-4,-0.0038 -2.15e-4,-0.0077 0,-0.01156 l 0.06934,-0.6125 c 0.0018,-0.01212 0.0057,-0.02392 0.01156,-0.03467 0.0029,-0.0081 0.0068,-0.01593 0.01156,-0.02311 0.0036,-0.0042 0.0074,-0.008 0.01156,-0.01156 0,0 0.350167,-0.289346 0.855189,-0.335141 0.05344,-0.138476 0.189376,-0.242689 0.346698,-0.242689 0.200238,0 0.363495,0.159553 0.369811,0.358255 0.399814,0.164989 0.624057,0.450707 0.624057,0.450707 0.0042,0.0036 0.008,0.0074 0.01156,0.01156 0.0042,0.0036 0.008,0.0074 0.01156,0.01156 0.0059,0.01075 -0.0018,0.02255 0,0.03467 7.39e-4,0.0077 7.39e-4,0.01544 0,0.02311 l -0.06934,0.6125 c -0.003,0.0081 0.0048,0.01593 0,0.02311 -0.003,0.0081 -0.0068,0.01593 -0.01156,0.02311 -0.0037,0.0042 -0.0074,0.008 -0.01156,0.01156 -0.0037,0.0042 -0.0074,0.008 -0.01156,0.01156 -0.0037,0.0042 -0.0074,0.008 -0.01156,0.01156 -0.0072,0.0048 -0.01498,0.0087 -0.02311,0.01156 -0.01143,0.0019 -0.02324,0.0019 -0.03467,0 l -0.208,-0.02311 c -0.0042,0.04513 -0.0056,0.06895 -0.01156,0.10401 -0.02903,0.17105 -0.08325,0.34063 -0.127122,0.50849 -0.06481,0.247985 -0.162765,0.58678 -0.208019,0.739623 l 1.444575,0 -3.663443,14.931137 -6.321463,-2.36911 c 0.122804,-1.986203 -0.433638,-2.358407 -2.276651,-3.062499 2.603415,-0.3912 5.507338,-0.695457 7.014859,-2.022405 1.059082,-0.932223 2.399949,-3.19804 2.923821,-4.830661 0.354198,-1.103842 0.608229,-2.02855 0.774292,-2.646462 l 0.01156,0 c 0.05684,-0.195955 0.08754,-0.300273 0.127123,-0.450708 0.05046,-0.191798 0.106775,-0.382089 0.138679,-0.57783 0.01779,-0.10905 0.01716,-0.238637 0.02311,-0.335141 l -1.386792,-0.150236 c -0.0037,0.05019 -0.0056,0.07791 -0.01156,0.115566 -0.02718,0.171359 -0.08325,0.34063 -0.127123,0.50849 -0.008,0.03074 -0.01337,0.05673 -0.02311,0.09245 -0.0849,0.311392 -0.227409,0.784907 -0.231132,0.797406 -5e-5,1.7e-4 0,0.01156 0,0.01156 -0.0197,0.08354 -0.0346,0.125115 -0.05778,0.219575 l -0.0809,0.288915 c -0.124749,0.489176 -0.273275,1.050715 -0.473821,1.675708 -0.516326,1.609103 -1.304376,3.43909 -2.241981,4.264387 -1.497627,1.318238 -4.334987,2.194915 -6.980189,2.738915 -5.342132,-0.741146 -11.035677,-0.462264 -16.50283,-0.462264 -3.08537,0 -5.570283,2.484914 -5.570283,5.570284 l 0,34.36934 c 0,3.08537 2.484913,5.57028 5.570283,5.57028 l 14.295519,0 c 3.085369,0 5.570283,-2.48491 5.570283,-5.57028 l -0.288915,-25.78278 8.598113,3.07405 c 1.236342,0.30189 2.467082,0.04 3.443868,-0.6125 0.438837,-0.22022 0.802616,-0.56152 1.051651,-0.99387 0.0052,-0.009 0.01801,-0.014 0.02311,-0.0231 0.336839,-0.45388 1.141918,-3.07575 1.513915,-4.66887 C 61.022622,38.074123 62.382,24.857226 62.382,24.857226 l 2.785142,0 0,-6.945519 -8.020284,0 c -0.11311,-0.294621 -0.403852,-0.496944 -0.739615,-0.496944 l -1.791274,0 z m 11.175237,0.06934 c -0.123365,0 -0.219576,0.107768 -0.219576,0.231132 l 0,0.208019 c -0.0077,-6.01e-4 -0.01562,0.0014 -0.02311,0 l 0,6.922405 c 0.0075,-0.0014 0.01544,6.01e-4 0.02311,0 l 0,0.208019 c 0,0.123364 0.09621,0.219576 0.219576,0.219576 l 1.479245,0 c 0.12336,0 0.219575,-0.09621 0.219575,-0.219576 l 0,-7.338443 c 0,-0.123364 -0.09622,-0.231132 -0.219575,-0.231132 l -1.479245,0 z m -17.045992,1.929952 c -0.717338,0 -1.305896,0.577001 -1.305896,1.29434 l 0,0.843632 c 0,0.717339 0.588558,1.29434 1.305896,1.29434 l 0.439151,0 0,-3.432312 -0.439151,0 z m 3.836793,2.981604 c -0.37865,0.03848 -0.641771,0.212292 -0.68184,0.242689 l -0.04623,0.473821 1.849057,0.196462 0.04623,-0.462264 c -0.02914,-0.03415 -0.206455,-0.233704 -0.496934,-0.358255 -0.06351,0.11217 -0.173926,0.184906 -0.312028,0.184906 -0.172957,0 -0.317824,-0.116957 -0.358255,-0.277359 z" id="path5758" inkscape:connector-curvature="0"/>
  <g id="g5753" transform="translate(-1.5098949,-34.224624)" style="fill:#000000;stroke:none">
    <g style="fill:#000000;stroke:none" transform="matrix(-0.01518302,0.02305311,-0.02305311,-0.01518302,42.314065,43.04619)" id="g3041"/>
    <g style="display:inline;fill:#000000;stroke:none" inkscape:label="draw" id="layer2"/>
  </g>
</svg>